<svg version="1.2" xmlns="http://www.w3.org/2000/svg" viewBox="0 0 1552 1585" width="1552" height="1585">
	<title>SBS_BIG</title>
	<style>
		.s0 { fill: #ffffff } 
	</style>
	<path class="s0" d="m1551.5 422l0.2-23.7v-353c0 0-330.6-125.8-626.2 45.5-295.7 171.4-345.3 392.9-345.3 392.9 0 0-47 165.8-53.5 228.3-6 62.8-4.9 60-4.9 60l0.5 6.3-0.5 8.7h1028c-231-82.3-321.6-116.2-429.9-210-139.9-133.1-84-273.9-33-339.9 111.6-143.8 309.4-114.1 392.3 25.9 13.1 21.8 26.2 42.8 33.2 58.6 20.2 33.9 29 57.9 39.1 100.4zm-1551.2-420.4v846c0 0 0.8 16.1 4.6 43.4 18 126 103.1 492.7 489.3 640.5 428.5 164.3 796-82.4 948.4-340.7 97.4-165.1 105.9-377.6 105.9-377.6h-1024c0 0 4.4 8.5 12.3 12.3 41.7 19.4 181.9 78.3 266.2 115.1 164.7 72.1 204 111.9 222.6 203.5 25.3 126.6-48.8 204.7-74.5 229.5-69.5 66.8-121.9 69.3-186.3 70.1-165.8 2.2-237.6-132.3-244.4-216.3-3-37.7 0-1225.2 0-1225.2z"/>
</svg>